<?xml version="1.0" encoding="UTF-8"?>
<svg version="1.1" xmlns="http://www.w3.org/2000/svg" width="900" height="600">
<path d="M0 0 C3.73892951 1.50224846 5.54093605 3.60165298 8 6.75 C11.58024763 11.2488638 15.23940663 15.65086454 19 20 C22.53674074 24.101733 26.02865649 28.22804737 29.4375 32.4375 C33.03636029 36.87239317 36.74732064 41.19567786 40.5 45.5 C44.99743351 50.65855495 49.38995284 55.88156886 53.69921875 61.19921875 C56.88035204 65.07166793 60.14753555 68.86728783 63.41601562 72.66601562 C68.18706167 78.21107167 72.91348405 83.79283679 77.63232422 89.38232422 C79.02459417 91.02908979 80.42005473 92.67310067 81.81640625 94.31640625 C86.04853633 99.30026248 90.25737398 104.29559272 94.375 109.375 C98.54156423 114.49733524 102.86201281 119.47417378 107.20043945 124.45043945 C111.12489097 128.96215363 114.93426783 133.55325555 118.69921875 138.19921875 C121.88035204 142.07166793 125.14753555 145.86728783 128.41601562 149.66601562 C133.18706167 155.21107167 137.91348405 160.79283679 142.63232422 166.38232422 C144.02459417 168.02908979 145.42005473 169.67310067 146.81640625 171.31640625 C151.04853633 176.30026248 155.25737398 181.29559272 159.375 186.375 C163.54156423 191.49733524 167.86201281 196.47417378 172.20043945 201.45043945 C176.12489097 205.96215363 179.93426783 210.55325555 183.69921875 215.19921875 C186.38058916 218.46329783 189.12062863 221.6725072 191.875 224.875 C192.38208496 225.46458496 192.88916992 226.05416992 193.41162109 226.66162109 C193.91902832 227.25152832 194.42643555 227.84143555 194.94921875 228.44921875 C202.75941294 237.5300896 210.45181057 246.69988512 218 256 C214.29338277 259.80379446 210.42215971 263.312993 206.375 266.75 C205.46065186 267.52682129 205.46065186 267.52682129 204.52783203 268.31933594 C203.28520694 269.37295752 202.04156186 270.42537738 200.796875 271.4765625 C199.11614625 272.90152818 197.44776353 274.33971579 195.78125 275.78125 C194.8221875 276.5959375 193.863125 277.410625 192.875 278.25 C192.02679687 278.97703125 191.17859375 279.7040625 190.3046875 280.453125 C188 282 188 282 184 282 C181.95703125 280.19921875 181.95703125 280.19921875 179.8125 277.6875 C179.01972656 276.76710938 178.22695313 275.84671875 177.41015625 274.8984375 C174.4200802 271.3025924 171.45709647 267.68648113 168.515625 264.05078125 C165.57074948 260.47943376 162.54279913 256.9878836 159.5 253.5 C155.00238974 248.3416034 150.61004114 243.11842371 146.30078125 237.80078125 C143.61941084 234.53670217 140.87937137 231.3274928 138.125 228.125 C137.61791504 227.53541504 137.11083008 226.94583008 136.58837891 226.33837891 C136.08097168 225.74847168 135.57356445 225.15856445 135.05078125 224.55078125 C128.82477633 217.31183876 122.6391376 210.04134091 116.625 202.625 C112.45843577 197.50266476 108.13798719 192.52582622 103.79956055 187.54956055 C99.87510903 183.03784637 96.06573217 178.44674445 92.30078125 173.80078125 C89.11964796 169.92833207 85.85246445 166.13271217 82.58398438 162.33398438 C77.81293833 156.78892833 73.08651595 151.20716321 68.36767578 145.61767578 C66.97540583 143.97091021 65.57994527 142.32689933 64.18359375 140.68359375 C59.95146367 135.69973752 55.74262602 130.70440728 51.625 125.625 C48.0027482 121.17183739 44.27132432 116.8265049 40.5 112.5 C36.72867568 108.1734951 32.9972518 103.82816261 29.375 99.375 C24.33346686 93.18111643 19.15869913 87.09664443 14 81 C13.67 131.16 13.34 181.32 13 233 C-1.52 233 -16.04 233 -31 233 C-31.31630378 206.21775936 -31.57407681 179.43703593 -31.72537041 152.65340042 C-31.79749289 140.2166573 -31.89577771 127.78115888 -32.05615234 115.34521484 C-32.195906 104.50309584 -32.28606397 93.66187836 -32.31723893 82.81888366 C-32.33545743 77.07955901 -32.37811455 71.34281286 -32.48022079 65.60431671 C-32.57566626 60.19605391 -32.60448469 54.79141604 -32.58350754 49.38239098 C-32.58734128 47.40378505 -32.61495874 45.42505084 -32.66887665 43.44717598 C-33.07535441 27.75922217 -33.07535441 27.75922217 -27.91949844 22.19980621 C-25.01597717 19.52275824 -21.91770501 17.23890785 -18.61657548 15.0781703 C-16.57583481 13.71710426 -14.75495998 12.16255879 -12.9296875 10.52734375 C-11.91180791 9.66365035 -10.89360671 8.80033574 -9.875 7.9375 C-9.35164063 7.49212891 -8.82828125 7.04675781 -8.2890625 6.58789062 C-5.58837344 4.29980683 -2.85967926 2.08660808 0 0 Z " fill="#000000" transform="translate(327,178)"/>
<path d="M0 0 C2.91696199 1.29881612 4.7864651 2.58790405 6.84765625 5.01953125 C7.36473145 5.62297363 7.88180664 6.22641602 8.41455078 6.84814453 C8.95837402 7.49638184 9.50219727 8.14461914 10.0625 8.8125 C10.63468262 9.48394043 11.20686523 10.15538086 11.79638672 10.84716797 C13.53722891 12.89286255 15.26909339 14.94589714 17 17 C17.96950368 18.14239272 18.93952 19.28435067 19.91015625 20.42578125 C22.1627921 23.0778519 24.40668022 25.73717009 26.6484375 28.3984375 C28.0331547 30.03928736 29.42218891 31.67638805 30.8125 33.3125 C35.0462757 38.29738213 39.2562111 43.29415822 43.375 48.375 C47.54156423 53.49733524 51.86201281 58.47417378 56.20043945 63.45043945 C60.12489097 67.96215363 63.93426783 72.55325555 67.69921875 77.19921875 C70.88035204 81.07166793 74.14753555 84.86728783 77.41601562 88.66601562 C82.18706167 94.21107167 86.91348405 99.79283679 91.63232422 105.38232422 C93.02459417 107.02908979 94.42005473 108.67310067 95.81640625 110.31640625 C100.04853633 115.30026248 104.25737398 120.29559272 108.375 125.375 C112.54156423 130.49733524 116.86201281 135.47417378 121.20043945 140.45043945 C125.12489097 144.96215363 128.93426783 149.55325555 132.69921875 154.19921875 C135.88035204 158.07166793 139.14753555 161.86728783 142.41601562 165.66601562 C147.17959682 171.2023958 151.89882921 176.77526937 156.61035156 182.35595703 C158.06889896 184.08151188 159.53022172 185.8046844 160.9921875 187.52734375 C161.48517334 188.10863037 161.97815918 188.68991699 162.48608398 189.28881836 C163.42258573 190.3929295 164.35956263 191.49663789 165.29711914 192.59985352 C167.920447 195.69483541 170.46397947 198.82997433 173 202 C173.495 126.76 173.495 126.76 174 50 C188.52 50 203.04 50 218 50 C218.31630378 76.78224064 218.57407681 103.56296407 218.72537041 130.34659958 C218.79749289 142.7833427 218.89577771 155.21884112 219.05615234 167.65478516 C219.195906 178.49690416 219.28606397 189.33812164 219.31723893 200.18111634 C219.33545743 205.92044099 219.37811455 211.65718714 219.48022079 217.39568329 C219.57566626 222.80394609 219.60448469 228.20858396 219.58350754 233.61760902 C219.58734128 235.59621495 219.61495874 237.57494916 219.66887665 239.55282402 C220.07535441 255.24077783 220.07535441 255.24077783 214.91949844 260.80019379 C212.01597717 263.47724176 208.91770501 265.76109215 205.61657548 267.9218297 C203.57583481 269.28289574 201.75495998 270.83744121 199.9296875 272.47265625 C198.91180791 273.33634965 197.89360671 274.19966426 196.875 275.0625 C196.35164062 275.50787109 195.82828125 275.95324219 195.2890625 276.41210938 C192.58837344 278.70019317 189.85967926 280.91339192 187 283 C183.26107049 281.49775154 181.45906395 279.39834702 179 276.25 C175.41975237 271.7511362 171.76059337 267.34913546 168 263 C164.46325926 258.898267 160.97134351 254.77195263 157.5625 250.5625 C153.96363971 246.12760683 150.25267936 241.80432214 146.5 237.5 C142.00256649 232.34144505 137.61004716 227.11843114 133.30078125 221.80078125 C130.11964796 217.92833207 126.85246445 214.13271217 123.58398438 210.33398438 C118.81293833 204.78892833 114.08651595 199.20716321 109.36767578 193.61767578 C107.97540583 191.97091021 106.57994527 190.32689933 105.18359375 188.68359375 C100.95146367 183.69973752 96.74262602 178.70440728 92.625 173.625 C88.45843577 168.50266476 84.13798719 163.52582622 79.79956055 158.54956055 C75.87510903 154.03784637 72.06573217 149.44674445 68.30078125 144.80078125 C65.11964796 140.92833207 61.85246445 137.13271217 58.58398438 133.33398438 C53.81293833 127.78892833 49.08651595 122.20716321 44.36767578 116.61767578 C42.97540583 114.97091021 41.57994527 113.32689933 40.18359375 111.68359375 C35.95146367 106.69973752 31.74262602 101.70440728 27.625 96.625 C23.45843577 91.50266476 19.13798719 86.52582622 14.79956055 81.54956055 C10.87510903 77.03784637 7.06573217 72.44674445 3.30078125 67.80078125 C0.61940994 64.53670106 -2.12066327 61.32752374 -4.875 58.125 C-5.38135986 57.53614014 -5.88771973 56.94728027 -6.40942383 56.34057617 C-7.43342444 55.14989671 -8.4574316 53.95922288 -9.48144531 52.76855469 C-16.46949925 44.63005586 -23.36064939 36.42759977 -30 28 C-28.5045292 24.40278644 -26.47293692 22.36902779 -23.5625 19.8125 C-22.67046875 19.02875 -21.7784375 18.245 -20.859375 17.4375 C-17.1377356 14.26495494 -13.36315879 11.16317544 -9.5625 8.0859375 C-6.32260914 5.44858732 -3.15682201 2.73591241 0 0 Z " fill="#525050" transform="translate(386,139)"/>
</svg>
